<svg width="351" height="97" viewBox="0 0 351 97" fill="none" xmlns="http://www.w3.org/2000/svg">
<path d="M15.96 75L1.08 0.599999H14.16L22.44 48.6L22.56 51.12H22.68V48.6L30.24 3.96H40.08L47.28 48.6L47.4 51.12H47.52L47.64 48.6L55.2 0.599999H68.76L54.12 75H41.76L35.52 34.2L35.4 31.8H35.28L35.16 34.2L28.32 75H15.96ZM89.3625 75.6C84.0825 75.6 80.0825 74.96 77.3625 73.68C74.7225 72.4 72.9225 70.68 71.9625 68.52C71.0025 66.36 70.5225 64 70.5225 61.44V32.04C70.5225 29.4 71.0025 27.04 71.9625 24.96C72.9225 22.8 74.7625 21.08 77.4825 19.8C80.2825 18.52 84.3625 17.88 89.7225 17.88C94.5225 17.88 98.3225 18.52 101.123 19.8C103.923 21 105.883 22.64 107.003 24.72C108.203 26.8 108.803 29.16 108.803 31.8V43.08L96.0825 43.92V34.2C96.0825 32.52 95.5625 31.04 94.5225 29.76C93.5625 28.4 91.9225 27.72 89.6025 27.72C87.3625 27.72 85.7225 28.36 84.6825 29.64C83.7225 30.92 83.2425 32.44 83.2425 34.2V59.04C83.2425 60.72 83.7225 62.16 84.6825 63.36C85.6425 64.56 87.1625 65.16 89.2425 65.16C91.7225 65.16 93.4825 64.56 94.5225 63.36C95.5625 62.08 96.0825 60.52 96.0825 58.68V54.72L108.803 53.76V60.96C108.803 63.76 108.203 66.28 107.003 68.52C105.803 70.68 103.803 72.4 101.003 73.68C98.2025 74.96 94.3225 75.6 89.3625 75.6ZM71.9625 49.08V42.24H108.803V49.08H71.9625ZM117.534 0.239997H130.254V75H117.534V0.239997ZM157.8 75.6C152.52 75.6 148.52 74.96 145.8 73.68C143.16 72.4 141.36 70.68 140.4 68.52C139.44 66.36 138.96 64 138.96 61.44V32.04C138.96 29.4 139.44 27.04 140.4 24.96C141.36 22.8 143.2 21.08 145.92 19.8C148.72 18.52 152.8 17.88 158.16 17.88C162.96 17.88 166.76 18.52 169.56 19.8C172.36 21 174.32 22.64 175.44 24.72C176.64 26.8 177.24 29.16 177.24 31.8V40.68L164.52 41.76V34.2C164.52 32.52 164 31.04 162.96 29.76C162 28.4 160.36 27.72 158.04 27.72C155.8 27.72 154.16 28.36 153.12 29.64C152.16 30.92 151.68 32.44 151.68 34.2V59.04C151.68 60.72 152.16 62.16 153.12 63.36C154.08 64.56 155.6 65.16 157.68 65.16C160.16 65.16 161.92 64.56 162.96 63.36C164 62.08 164.52 60.52 164.52 58.68V52.08L177.24 51.12V60.96C177.24 63.76 176.64 66.28 175.44 68.52C174.24 70.68 172.24 72.4 169.44 73.68C166.64 74.96 162.76 75.6 157.8 75.6ZM203.503 75.6C198.223 75.6 194.223 74.96 191.503 73.68C188.863 72.4 187.063 70.68 186.103 68.52C185.143 66.36 184.663 64 184.663 61.44V32.04C184.663 29.4 185.143 27.04 186.103 24.96C187.063 22.8 188.903 21.08 191.623 19.8C194.423 18.52 198.503 17.88 203.863 17.88C208.663 17.88 212.463 18.52 215.263 19.8C218.063 21 220.023 22.64 221.143 24.72C222.343 26.8 222.943 29.16 222.943 31.8V60.96C222.943 63.76 222.343 66.28 221.143 68.52C219.943 70.68 217.943 72.4 215.143 73.68C212.343 74.96 208.463 75.6 203.503 75.6ZM203.383 65.16C205.863 65.16 207.623 64.56 208.663 63.36C209.703 62.08 210.223 60.52 210.223 58.68V34.2C210.223 32.52 209.703 31.04 208.663 29.76C207.703 28.4 206.063 27.72 203.743 27.72C201.503 27.72 199.863 28.36 198.823 29.64C197.863 30.92 197.383 32.44 197.383 34.2V59.04C197.383 60.72 197.863 62.16 198.823 63.36C199.783 64.56 201.303 65.16 203.383 65.16ZM231.675 75V18.48H242.115L243.315 24.36C244.515 22.2 246.235 20.56 248.475 19.44C250.795 18.24 253.515 17.64 256.635 17.64C259.835 17.64 262.355 18.12 264.195 19.08C266.035 20.04 267.355 21.28 268.155 22.8C269.035 24.24 269.555 25.8 269.715 27.48L267.075 29.88C267.715 26.44 268.835 23.88 270.435 22.2C272.035 20.44 273.875 19.24 275.955 18.6C278.115 17.96 280.195 17.64 282.195 17.64C285.955 17.64 288.755 18.32 290.595 19.68C292.515 20.96 293.795 22.56 294.435 24.48C295.075 26.32 295.395 28.12 295.395 29.88V75H282.675V34.56C282.675 32.16 282.115 30.44 280.995 29.4C279.955 28.36 278.435 27.84 276.435 27.84C274.515 27.84 272.955 28.36 271.755 29.4C270.555 30.44 269.955 32.16 269.955 34.56V75H257.235V34.08C257.235 31.92 256.675 30.36 255.555 29.4C254.515 28.36 252.915 27.84 250.755 27.84C248.995 27.84 247.595 28.28 246.555 29.16C245.595 30.04 244.875 31.24 244.395 32.76V75H231.675ZM322.683 75.6C317.403 75.6 313.403 74.96 310.683 73.68C308.043 72.4 306.243 70.68 305.283 68.52C304.323 66.36 303.843 64 303.843 61.44V32.04C303.843 29.4 304.323 27.04 305.283 24.96C306.243 22.8 308.083 21.08 310.803 19.8C313.603 18.52 317.683 17.88 323.043 17.88C327.843 17.88 331.643 18.52 334.443 19.8C337.243 21 339.203 22.64 340.323 24.72C341.523 26.8 342.123 29.16 342.123 31.8V43.08L329.403 43.92V34.2C329.403 32.52 328.883 31.04 327.843 29.76C326.883 28.4 325.243 27.72 322.923 27.72C320.683 27.72 319.043 28.36 318.003 29.64C317.043 30.92 316.563 32.44 316.563 34.2V59.04C316.563 60.72 317.043 62.16 318.003 63.36C318.963 64.56 320.483 65.16 322.563 65.16C325.043 65.16 326.803 64.56 327.843 63.36C328.883 62.08 329.403 60.52 329.403 58.68V54.72L342.123 53.76V60.96C342.123 63.76 341.523 66.28 340.323 68.52C339.123 70.68 337.123 72.4 334.323 73.68C331.523 74.96 327.643 75.6 322.683 75.6ZM305.283 49.08V42.24H342.123V49.08H305.283Z" fill="#1C1C1C"/>
<path d="M61.2757 83.042L58.4477 92.8H57.0197L54.7517 84.946L52.3997 92.8L50.9857 92.814L48.2557 83.042H49.6137L51.7417 91.316L54.0937 83.042H55.5217L57.7617 91.288L59.9037 83.042H61.2757ZM69.6699 88.67C69.6699 88.9127 69.6559 89.1693 69.6279 89.44H63.4959C63.5426 90.196 63.7993 90.7887 64.2659 91.218C64.7419 91.638 65.3159 91.848 65.9879 91.848C66.5386 91.848 66.9959 91.722 67.3599 91.47C67.7333 91.2087 67.9946 90.8633 68.1439 90.434H69.5159C69.3106 91.1713 68.8999 91.7733 68.2839 92.24C67.6679 92.6973 66.9026 92.926 65.9879 92.926C65.2599 92.926 64.6066 92.7627 64.0279 92.436C63.4586 92.1093 63.0106 91.6473 62.6839 91.05C62.3573 90.4433 62.1939 89.7433 62.1939 88.95C62.1939 88.1567 62.3526 87.4613 62.6699 86.864C62.9873 86.2667 63.4306 85.8093 63.9999 85.492C64.5786 85.1653 65.2413 85.002 65.9879 85.002C66.7159 85.002 67.3599 85.1607 67.9199 85.478C68.4799 85.7953 68.9093 86.234 69.2079 86.794C69.5159 87.3447 69.6699 87.97 69.6699 88.67ZM68.3539 88.404C68.3539 87.9187 68.2466 87.5033 68.0319 87.158C67.8173 86.8033 67.5233 86.5373 67.1499 86.36C66.7859 86.1733 66.3799 86.08 65.9319 86.08C65.2879 86.08 64.7373 86.2853 64.2799 86.696C63.8319 87.1067 63.5753 87.676 63.5099 88.404H68.3539ZM74.608 88.936C74.608 88.152 74.7666 87.466 75.084 86.878C75.4013 86.2807 75.8353 85.8187 76.386 85.492C76.946 85.1653 77.5666 85.002 78.248 85.002C78.92 85.002 79.5033 85.1467 79.998 85.436C80.4926 85.7253 80.8613 86.0893 81.104 86.528V85.128H82.392V92.8H81.104V91.372C80.852 91.82 80.474 92.1933 79.97 92.492C79.4753 92.7813 78.8966 92.926 78.234 92.926C77.5526 92.926 76.9366 92.758 76.386 92.422C75.8353 92.086 75.4013 91.6147 75.084 91.008C74.7666 90.4013 74.608 89.7107 74.608 88.936ZM81.104 88.95C81.104 88.3713 80.9873 87.8673 80.754 87.438C80.5206 87.0087 80.2033 86.682 79.802 86.458C79.41 86.2247 78.976 86.108 78.5 86.108C78.024 86.108 77.59 86.22 77.198 86.444C76.806 86.668 76.4933 86.9947 76.26 87.424C76.0266 87.8533 75.91 88.3573 75.91 88.936C75.91 89.524 76.0266 90.0373 76.26 90.476C76.4933 90.9053 76.806 91.2367 77.198 91.47C77.59 91.694 78.024 91.806 78.5 91.806C78.976 91.806 79.41 91.694 79.802 91.47C80.2033 91.2367 80.5206 90.9053 80.754 90.476C80.9873 90.0373 81.104 89.5287 81.104 88.95ZM85.8189 86.374C86.0429 85.9353 86.3603 85.5947 86.7709 85.352C87.1909 85.1093 87.6996 84.988 88.2969 84.988V86.304H87.9609C86.5329 86.304 85.8189 87.0787 85.8189 88.628V92.8H84.5449V85.128H85.8189V86.374ZM96.7676 88.67C96.7676 88.9127 96.7536 89.1693 96.7256 89.44H90.5936C90.6402 90.196 90.8969 90.7887 91.3636 91.218C91.8396 91.638 92.4136 91.848 93.0856 91.848C93.6362 91.848 94.0936 91.722 94.4576 91.47C94.8309 91.2087 95.0922 90.8633 95.2416 90.434H96.6136C96.4082 91.1713 95.9976 91.7733 95.3816 92.24C94.7656 92.6973 94.0002 92.926 93.0856 92.926C92.3576 92.926 91.7042 92.7627 91.1256 92.436C90.5562 92.1093 90.1082 91.6473 89.7816 91.05C89.4549 90.4433 89.2916 89.7433 89.2916 88.95C89.2916 88.1567 89.4502 87.4613 89.7676 86.864C90.0849 86.2667 90.5282 85.8093 91.0976 85.492C91.6762 85.1653 92.3389 85.002 93.0856 85.002C93.8136 85.002 94.4576 85.1607 95.0176 85.478C95.5776 85.7953 96.0069 86.234 96.3056 86.794C96.6136 87.3447 96.7676 87.97 96.7676 88.67ZM95.4516 88.404C95.4516 87.9187 95.3442 87.5033 95.1296 87.158C94.9149 86.8033 94.6209 86.5373 94.2476 86.36C93.8836 86.1733 93.4776 86.08 93.0296 86.08C92.3856 86.08 91.8349 86.2853 91.3776 86.696C90.9296 87.1067 90.6729 87.676 90.6076 88.404H95.4516ZM105.346 85.002C106.008 85.002 106.587 85.1467 107.082 85.436C107.586 85.7253 107.959 86.0893 108.202 86.528V85.128H109.49V92.968C109.49 93.668 109.34 94.2887 109.042 94.83C108.743 95.3807 108.314 95.81 107.754 96.118C107.203 96.426 106.559 96.58 105.822 96.58C104.814 96.58 103.974 96.342 103.302 95.866C102.63 95.39 102.233 94.7413 102.112 93.92H103.372C103.512 94.3867 103.801 94.76 104.24 95.04C104.678 95.3293 105.206 95.474 105.822 95.474C106.522 95.474 107.091 95.2547 107.53 94.816C107.978 94.3773 108.202 93.7613 108.202 92.968V91.358C107.95 91.806 107.576 92.1793 107.082 92.478C106.587 92.7767 106.008 92.926 105.346 92.926C104.664 92.926 104.044 92.758 103.484 92.422C102.933 92.086 102.499 91.6147 102.182 91.008C101.864 90.4013 101.706 89.7107 101.706 88.936C101.706 88.152 101.864 87.466 102.182 86.878C102.499 86.2807 102.933 85.8187 103.484 85.492C104.044 85.1653 104.664 85.002 105.346 85.002ZM108.202 88.95C108.202 88.3713 108.085 87.8673 107.852 87.438C107.618 87.0087 107.301 86.682 106.9 86.458C106.508 86.2247 106.074 86.108 105.598 86.108C105.122 86.108 104.688 86.22 104.296 86.444C103.904 86.668 103.591 86.9947 103.358 87.424C103.124 87.8533 103.008 88.3573 103.008 88.936C103.008 89.524 103.124 90.0373 103.358 90.476C103.591 90.9053 103.904 91.2367 104.296 91.47C104.688 91.694 105.122 91.806 105.598 91.806C106.074 91.806 106.508 91.694 106.9 91.47C107.301 91.2367 107.618 90.9053 107.852 90.476C108.085 90.0373 108.202 89.5287 108.202 88.95ZM112.917 82.44V92.8H111.643V82.44H112.917ZM114.612 88.936C114.612 88.152 114.771 87.466 115.088 86.878C115.405 86.2807 115.839 85.8187 116.39 85.492C116.95 85.1653 117.571 85.002 118.252 85.002C118.924 85.002 119.507 85.1467 120.002 85.436C120.497 85.7253 120.865 86.0893 121.108 86.528V85.128H122.396V92.8H121.108V91.372C120.856 91.82 120.478 92.1933 119.974 92.492C119.479 92.7813 118.901 92.926 118.238 92.926C117.557 92.926 116.941 92.758 116.39 92.422C115.839 92.086 115.405 91.6147 115.088 91.008C114.771 90.4013 114.612 89.7107 114.612 88.936ZM121.108 88.95C121.108 88.3713 120.991 87.8673 120.758 87.438C120.525 87.0087 120.207 86.682 119.806 86.458C119.414 86.2247 118.98 86.108 118.504 86.108C118.028 86.108 117.594 86.22 117.202 86.444C116.81 86.668 116.497 86.9947 116.264 87.424C116.031 87.8533 115.914 88.3573 115.914 88.936C115.914 89.524 116.031 90.0373 116.264 90.476C116.497 90.9053 116.81 91.2367 117.202 91.47C117.594 91.694 118.028 91.806 118.504 91.806C118.98 91.806 119.414 91.694 119.806 91.47C120.207 91.2367 120.525 90.9053 120.758 90.476C120.991 90.0373 121.108 89.5287 121.108 88.95ZM124.073 88.936C124.073 88.152 124.231 87.466 124.549 86.878C124.866 86.2807 125.3 85.8187 125.851 85.492C126.411 85.1653 127.036 85.002 127.727 85.002C128.324 85.002 128.879 85.142 129.393 85.422C129.906 85.6927 130.298 86.052 130.569 86.5V82.44H131.857V92.8H130.569V91.358C130.317 91.8153 129.943 92.1933 129.449 92.492C128.954 92.7813 128.375 92.926 127.713 92.926C127.031 92.926 126.411 92.758 125.851 92.422C125.3 92.086 124.866 91.6147 124.549 91.008C124.231 90.4013 124.073 89.7107 124.073 88.936ZM130.569 88.95C130.569 88.3713 130.452 87.8673 130.219 87.438C129.985 87.0087 129.668 86.682 129.267 86.458C128.875 86.2247 128.441 86.108 127.965 86.108C127.489 86.108 127.055 86.22 126.663 86.444C126.271 86.668 125.958 86.9947 125.725 87.424C125.491 87.8533 125.375 88.3573 125.375 88.936C125.375 89.524 125.491 90.0373 125.725 90.476C125.958 90.9053 126.271 91.2367 126.663 91.47C127.055 91.694 127.489 91.806 127.965 91.806C128.441 91.806 128.875 91.694 129.267 91.47C129.668 91.2367 129.985 90.9053 130.219 90.476C130.452 90.0373 130.569 89.5287 130.569 88.95ZM139.296 86.178V90.7C139.296 91.0733 139.376 91.3393 139.534 91.498C139.693 91.6473 139.968 91.722 140.36 91.722H141.298V92.8H140.15C139.441 92.8 138.909 92.6367 138.554 92.31C138.2 91.9833 138.022 91.4467 138.022 90.7V86.178H137.028V85.128H138.022V83.196H139.296V85.128H141.298V86.178H139.296ZM146.188 92.926C145.469 92.926 144.816 92.7627 144.228 92.436C143.649 92.1093 143.192 91.6473 142.856 91.05C142.529 90.4433 142.366 89.7433 142.366 88.95C142.366 88.166 142.534 87.4753 142.87 86.878C143.215 86.2713 143.682 85.8093 144.27 85.492C144.858 85.1653 145.516 85.002 146.244 85.002C146.972 85.002 147.63 85.1653 148.218 85.492C148.806 85.8093 149.268 86.2667 149.604 86.864C149.949 87.4613 150.122 88.1567 150.122 88.95C150.122 89.7433 149.944 90.4433 149.59 91.05C149.244 91.6473 148.773 92.1093 148.176 92.436C147.578 92.7627 146.916 92.926 146.188 92.926ZM146.188 91.806C146.645 91.806 147.074 91.6987 147.476 91.484C147.877 91.2693 148.199 90.9473 148.442 90.518C148.694 90.0887 148.82 89.566 148.82 88.95C148.82 88.334 148.698 87.8113 148.456 87.382C148.213 86.9527 147.896 86.6353 147.504 86.43C147.112 86.2153 146.687 86.108 146.23 86.108C145.763 86.108 145.334 86.2153 144.942 86.43C144.559 86.6353 144.251 86.9527 144.018 87.382C143.784 87.8113 143.668 88.334 143.668 88.95C143.668 89.5753 143.78 90.1027 144.004 90.532C144.237 90.9613 144.545 91.2833 144.928 91.498C145.31 91.7033 145.73 91.806 146.188 91.806ZM158.245 92.926C157.657 92.926 157.13 92.828 156.663 92.632C156.197 92.4267 155.828 92.1467 155.557 91.792C155.287 91.428 155.137 91.0127 155.109 90.546H156.425C156.463 90.9287 156.64 91.2413 156.957 91.484C157.284 91.7267 157.709 91.848 158.231 91.848C158.717 91.848 159.099 91.7407 159.379 91.526C159.659 91.3113 159.799 91.0407 159.799 90.714C159.799 90.378 159.65 90.1307 159.351 89.972C159.053 89.804 158.591 89.6407 157.965 89.482C157.396 89.3327 156.929 89.1833 156.565 89.034C156.211 88.8753 155.903 88.6467 155.641 88.348C155.389 88.04 155.263 87.6387 155.263 87.144C155.263 86.752 155.38 86.3927 155.613 86.066C155.847 85.7393 156.178 85.4827 156.607 85.296C157.037 85.1 157.527 85.002 158.077 85.002C158.927 85.002 159.613 85.2167 160.135 85.646C160.658 86.0753 160.938 86.6633 160.975 87.41H159.701C159.673 87.0087 159.51 86.6867 159.211 86.444C158.922 86.2013 158.53 86.08 158.035 86.08C157.578 86.08 157.214 86.178 156.943 86.374C156.673 86.57 156.537 86.8267 156.537 87.144C156.537 87.396 156.617 87.606 156.775 87.774C156.943 87.9327 157.149 88.0633 157.391 88.166C157.643 88.2593 157.989 88.3667 158.427 88.488C158.978 88.6373 159.426 88.7867 159.771 88.936C160.117 89.076 160.411 89.2907 160.653 89.58C160.905 89.8693 161.036 90.2473 161.045 90.714C161.045 91.134 160.929 91.512 160.695 91.848C160.462 92.184 160.131 92.45 159.701 92.646C159.281 92.8327 158.796 92.926 158.245 92.926ZM169.844 88.67C169.844 88.9127 169.83 89.1693 169.802 89.44H163.67C163.716 90.196 163.973 90.7887 164.44 91.218C164.916 91.638 165.49 91.848 166.162 91.848C166.712 91.848 167.17 91.722 167.534 91.47C167.907 91.2087 168.168 90.8633 168.318 90.434H169.69C169.484 91.1713 169.074 91.7733 168.458 92.24C167.842 92.6973 167.076 92.926 166.162 92.926C165.434 92.926 164.78 92.7627 164.202 92.436C163.632 92.1093 163.184 91.6473 162.858 91.05C162.531 90.4433 162.368 89.7433 162.368 88.95C162.368 88.1567 162.526 87.4613 162.844 86.864C163.161 86.2667 163.604 85.8093 164.174 85.492C164.752 85.1653 165.415 85.002 166.162 85.002C166.89 85.002 167.534 85.1607 168.094 85.478C168.654 85.7953 169.083 86.234 169.382 86.794C169.69 87.3447 169.844 87.97 169.844 88.67ZM168.528 88.404C168.528 87.9187 168.42 87.5033 168.206 87.158C167.991 86.8033 167.697 86.5373 167.324 86.36C166.96 86.1733 166.554 86.08 166.106 86.08C165.462 86.08 164.911 86.2853 164.454 86.696C164.006 87.1067 163.749 87.676 163.684 88.404H168.528ZM178.525 88.67C178.525 88.9127 178.511 89.1693 178.483 89.44H172.351C172.398 90.196 172.655 90.7887 173.121 91.218C173.597 91.638 174.171 91.848 174.843 91.848C175.394 91.848 175.851 91.722 176.215 91.47C176.589 91.2087 176.85 90.8633 176.999 90.434H178.371C178.166 91.1713 177.755 91.7733 177.139 92.24C176.523 92.6973 175.758 92.926 174.843 92.926C174.115 92.926 173.462 92.7627 172.883 92.436C172.314 92.1093 171.866 91.6473 171.539 91.05C171.213 90.4433 171.049 89.7433 171.049 88.95C171.049 88.1567 171.208 87.4613 171.525 86.864C171.843 86.2667 172.286 85.8093 172.855 85.492C173.434 85.1653 174.097 85.002 174.843 85.002C175.571 85.002 176.215 85.1607 176.775 85.478C177.335 85.7953 177.765 86.234 178.063 86.794C178.371 87.3447 178.525 87.97 178.525 88.67ZM177.209 88.404C177.209 87.9187 177.102 87.5033 176.887 87.158C176.673 86.8033 176.379 86.5373 176.005 86.36C175.641 86.1733 175.235 86.08 174.787 86.08C174.143 86.08 173.593 86.2853 173.135 86.696C172.687 87.1067 172.431 87.676 172.365 88.404H177.209ZM190.547 85.128L185.927 96.412H184.611L186.123 92.716L183.029 85.128H184.443L186.851 91.344L189.231 85.128H190.547ZM195.174 92.926C194.455 92.926 193.802 92.7627 193.214 92.436C192.635 92.1093 192.178 91.6473 191.842 91.05C191.515 90.4433 191.352 89.7433 191.352 88.95C191.352 88.166 191.52 87.4753 191.856 86.878C192.201 86.2713 192.668 85.8093 193.256 85.492C193.844 85.1653 194.502 85.002 195.23 85.002C195.958 85.002 196.616 85.1653 197.204 85.492C197.792 85.8093 198.254 86.2667 198.59 86.864C198.935 87.4613 199.108 88.1567 199.108 88.95C199.108 89.7433 198.931 90.4433 198.576 91.05C198.231 91.6473 197.759 92.1093 197.162 92.436C196.565 92.7627 195.902 92.926 195.174 92.926ZM195.174 91.806C195.631 91.806 196.061 91.6987 196.462 91.484C196.863 91.2693 197.185 90.9473 197.428 90.518C197.68 90.0887 197.806 89.566 197.806 88.95C197.806 88.334 197.685 87.8113 197.442 87.382C197.199 86.9527 196.882 86.6353 196.49 86.43C196.098 86.2153 195.673 86.108 195.216 86.108C194.749 86.108 194.32 86.2153 193.928 86.43C193.545 86.6353 193.237 86.9527 193.004 87.382C192.771 87.8113 192.654 88.334 192.654 88.95C192.654 89.5753 192.766 90.1027 192.99 90.532C193.223 90.9613 193.531 91.2833 193.914 91.498C194.297 91.7033 194.717 91.806 195.174 91.806ZM207.587 85.128V92.8H206.313V91.666C206.071 92.058 205.73 92.366 205.291 92.59C204.862 92.8047 204.386 92.912 203.863 92.912C203.266 92.912 202.729 92.7907 202.253 92.548C201.777 92.296 201.399 91.9227 201.119 91.428C200.849 90.9333 200.713 90.3313 200.713 89.622V85.128H201.973V89.454C201.973 90.21 202.165 90.7933 202.547 91.204C202.93 91.6053 203.453 91.806 204.115 91.806C204.797 91.806 205.333 91.596 205.725 91.176C206.117 90.756 206.313 90.1447 206.313 89.342V85.128H207.587ZM214.745 86.556C215.006 86.0987 215.389 85.7253 215.893 85.436C216.397 85.1467 216.971 85.002 217.615 85.002C218.305 85.002 218.926 85.1653 219.477 85.492C220.027 85.8187 220.461 86.2807 220.779 86.878C221.096 87.466 221.255 88.152 221.255 88.936C221.255 89.7107 221.096 90.4013 220.779 91.008C220.461 91.6147 220.023 92.086 219.463 92.422C218.912 92.758 218.296 92.926 217.615 92.926C216.952 92.926 216.369 92.7813 215.865 92.492C215.37 92.2027 214.997 91.834 214.745 91.386V92.8H213.471V82.44H214.745V86.556ZM219.953 88.936C219.953 88.3573 219.836 87.8533 219.603 87.424C219.369 86.9947 219.052 86.668 218.651 86.444C218.259 86.22 217.825 86.108 217.349 86.108C216.882 86.108 216.448 86.2247 216.047 86.458C215.655 86.682 215.337 87.0133 215.095 87.452C214.861 87.8813 214.745 88.3807 214.745 88.95C214.745 89.5287 214.861 90.0373 215.095 90.476C215.337 90.9053 215.655 91.2367 216.047 91.47C216.448 91.694 216.882 91.806 217.349 91.806C217.825 91.806 218.259 91.694 218.651 91.47C219.052 91.2367 219.369 90.9053 219.603 90.476C219.836 90.0373 219.953 89.524 219.953 88.936ZM222.456 88.936C222.456 88.152 222.614 87.466 222.932 86.878C223.249 86.2807 223.683 85.8187 224.234 85.492C224.794 85.1653 225.414 85.002 226.096 85.002C226.768 85.002 227.351 85.1467 227.846 85.436C228.34 85.7253 228.709 86.0893 228.952 86.528V85.128H230.24V92.8H228.952V91.372C228.7 91.82 228.322 92.1933 227.818 92.492C227.323 92.7813 226.744 92.926 226.082 92.926C225.4 92.926 224.784 92.758 224.234 92.422C223.683 92.086 223.249 91.6147 222.932 91.008C222.614 90.4013 222.456 89.7107 222.456 88.936ZM228.952 88.95C228.952 88.3713 228.835 87.8673 228.602 87.438C228.368 87.0087 228.051 86.682 227.65 86.458C227.258 86.2247 226.824 86.108 226.348 86.108C225.872 86.108 225.438 86.22 225.046 86.444C224.654 86.668 224.341 86.9947 224.108 87.424C223.874 87.8533 223.758 88.3573 223.758 88.936C223.758 89.524 223.874 90.0373 224.108 90.476C224.341 90.9053 224.654 91.2367 225.046 91.47C225.438 91.694 225.872 91.806 226.348 91.806C226.824 91.806 227.258 91.694 227.65 91.47C228.051 91.2367 228.368 90.9053 228.602 90.476C228.835 90.0373 228.952 89.5287 228.952 88.95ZM231.917 88.95C231.917 88.1567 232.075 87.466 232.393 86.878C232.71 86.2807 233.149 85.8187 233.709 85.492C234.278 85.1653 234.927 85.002 235.655 85.002C236.597 85.002 237.372 85.2307 237.979 85.688C238.595 86.1453 239.001 86.78 239.197 87.592H237.825C237.694 87.1253 237.437 86.7567 237.055 86.486C236.681 86.2153 236.215 86.08 235.655 86.08C234.927 86.08 234.339 86.332 233.891 86.836C233.443 87.3307 233.219 88.0353 233.219 88.95C233.219 89.874 233.443 90.588 233.891 91.092C234.339 91.596 234.927 91.848 235.655 91.848C236.215 91.848 236.681 91.7173 237.055 91.456C237.428 91.1947 237.685 90.8213 237.825 90.336H239.197C238.991 91.12 238.581 91.75 237.965 92.226C237.349 92.6927 236.579 92.926 235.655 92.926C234.927 92.926 234.278 92.7627 233.709 92.436C233.149 92.1093 232.71 91.6473 232.393 91.05C232.075 90.4527 231.917 89.7527 231.917 88.95ZM245.18 92.8L242.17 89.412V92.8H240.896V82.44H242.17V88.53L245.124 85.128H246.902L243.29 88.95L246.916 92.8H245.18ZM262.054 85.128L259.66 92.8H258.344L256.496 86.71L254.648 92.8H253.332L250.924 85.128H252.226L253.99 91.568L255.894 85.128H257.196L259.058 91.582L260.794 85.128H262.054ZM263.976 83.882C263.734 83.882 263.528 83.798 263.36 83.63C263.192 83.462 263.108 83.2567 263.108 83.014C263.108 82.7713 263.192 82.566 263.36 82.398C263.528 82.23 263.734 82.146 263.976 82.146C264.21 82.146 264.406 82.23 264.564 82.398C264.732 82.566 264.816 82.7713 264.816 83.014C264.816 83.2567 264.732 83.462 264.564 83.63C264.406 83.798 264.21 83.882 263.976 83.882ZM264.592 85.128V92.8H263.318V85.128H264.592ZM268.318 86.178V90.7C268.318 91.0733 268.397 91.3393 268.556 91.498C268.714 91.6473 268.99 91.722 269.382 91.722H270.32V92.8H269.172C268.462 92.8 267.93 92.6367 267.576 92.31C267.221 91.9833 267.044 91.4467 267.044 90.7V86.178H266.05V85.128H267.044V83.196H268.318V85.128H270.32V86.178H268.318ZM275.671 84.988C276.25 84.988 276.773 85.114 277.239 85.366C277.706 85.6087 278.07 85.9773 278.331 86.472C278.602 86.9667 278.737 87.5687 278.737 88.278V92.8H277.477V88.46C277.477 87.6947 277.286 87.1113 276.903 86.71C276.521 86.2993 275.998 86.094 275.335 86.094C274.663 86.094 274.127 86.304 273.725 86.724C273.333 87.144 273.137 87.7553 273.137 88.558V92.8H271.863V82.44H273.137V86.22C273.389 85.828 273.735 85.5247 274.173 85.31C274.621 85.0953 275.121 84.988 275.671 84.988ZM291.355 85.128V92.8H290.081V91.666C289.838 92.058 289.497 92.366 289.059 92.59C288.629 92.8047 288.153 92.912 287.631 92.912C287.033 92.912 286.497 92.7907 286.021 92.548C285.545 92.296 285.167 91.9227 284.887 91.428C284.616 90.9333 284.481 90.3313 284.481 89.622V85.128H285.741V89.454C285.741 90.21 285.932 90.7933 286.315 91.204C286.697 91.6053 287.22 91.806 287.883 91.806C288.564 91.806 289.101 91.596 289.493 91.176C289.885 90.756 290.081 90.1447 290.081 89.342V85.128H291.355ZM296.222 92.926C295.634 92.926 295.107 92.828 294.64 92.632C294.173 92.4267 293.805 92.1467 293.534 91.792C293.263 91.428 293.114 91.0127 293.086 90.546H294.402C294.439 90.9287 294.617 91.2413 294.934 91.484C295.261 91.7267 295.685 91.848 296.208 91.848C296.693 91.848 297.076 91.7407 297.356 91.526C297.636 91.3113 297.776 91.0407 297.776 90.714C297.776 90.378 297.627 90.1307 297.328 89.972C297.029 89.804 296.567 89.6407 295.942 89.482C295.373 89.3327 294.906 89.1833 294.542 89.034C294.187 88.8753 293.879 88.6467 293.618 88.348C293.366 88.04 293.24 87.6387 293.24 87.144C293.24 86.752 293.357 86.3927 293.59 86.066C293.823 85.7393 294.155 85.4827 294.584 85.296C295.013 85.1 295.503 85.002 296.054 85.002C296.903 85.002 297.589 85.2167 298.112 85.646C298.635 86.0753 298.915 86.6633 298.952 87.41H297.678C297.65 87.0087 297.487 86.6867 297.188 86.444C296.899 86.2013 296.507 86.08 296.012 86.08C295.555 86.08 295.191 86.178 294.92 86.374C294.649 86.57 294.514 86.8267 294.514 87.144C294.514 87.396 294.593 87.606 294.752 87.774C294.92 87.9327 295.125 88.0633 295.368 88.166C295.62 88.2593 295.965 88.3667 296.404 88.488C296.955 88.6373 297.403 88.7867 297.748 88.936C298.093 89.076 298.387 89.2907 298.63 89.58C298.882 89.8693 299.013 90.2473 299.022 90.714C299.022 91.134 298.905 91.512 298.672 91.848C298.439 92.184 298.107 92.45 297.678 92.646C297.258 92.8327 296.773 92.926 296.222 92.926Z" fill="#1C1C1C"/>
</svg>
